<svg xmlns="http://www.w3.org/2000/svg" viewBox="0 0 48 48">
  <path fill="#FFC107" d="M43.611 20.083H42V20H24v8h11.303c-1.651 4.657-6.08 8-11.303 8-6.627 0-12-5.373-12-12s5.373-12 12-12c3.059 0 5.842 1.153 7.963 3.037l5.657-5.657C34.046 7.159 29.268 5 24 5 12.955 5 4 13.955 4 25s8.955 20 20 20 20-8.955 20-20c0-1.341-.138-2.65-.389-3.917z"/>
  <path fill="#FF3D00" d="M6.306 14.691l6.571 4.819C14.655 15.108 18.961 12 24 12c3.059 0 5.842 1.153 7.963 3.037l5.657-5.657C34.046 7.159 29.268 5 24 5 16.318 5 9.75 9.213 6.306 14.691z"/>
  <path fill="#4CAF50" d="M24 45c5.123 0 9.835-1.957 13.409-5.146l-6.19-5.236C29.19 36.52 26.715 37.5 24 37.5c-5.2 0-9.616-3.329-11.276-7.965l-6.53 5.026C9.62 40.789 16.302 45 24 45z"/>
  <path fill="#1976D2" d="M43.611 20.083H42V20H24v8h11.303c-.79 2.229-2.231 4.139-4.093 5.5l.003-.002 6.19 5.236C35.085 41.63 39 34.5 39 25c0-1.341-.138-2.65-.389-3.917z"/>
</svg>
